<?xml version="1.0" encoding="UTF-8" standalone="no"?>
<svg
   xmlns:dc="http://purl.org/dc/elements/1.1/"
   xmlns:cc="http://creativecommons.org/ns#"
   xmlns:rdf="http://www.w3.org/1999/02/22-rdf-syntax-ns#"
   xmlns:svg="http://www.w3.org/2000/svg"
   xmlns="http://www.w3.org/2000/svg"
   id="svg2"
   viewBox="0 0 500 250"
   version="1.1">
  <metadata
     id="metadata12">
    <rdf:RDF>
      <cc:Work
         rdf:about="">
        <dc:format>image/svg+xml</dc:format>
        <dc:type
           rdf:resource="http://purl.org/dc/dcmitype/StillImage" />
        <dc:title></dc:title>
      </cc:Work>
    </rdf:RDF>
  </metadata>
  <defs
     id="defs10" />
  <g
     id="g4" />
  <rect
     style="opacity:1;fill:#014171;fill-opacity:1;stroke:#ffffff;stroke-width:1;stroke-miterlimit:4;stroke-dasharray:none;stroke-dashoffset:0;stroke-opacity:1"
     width="499"
     height="249"
     x="0.5"
     y="0.5"
     id="blue_rectangle" />
  <path
     style="fill:#fbc51d;fill-opacity:1;fill-rule:nonzero;stroke:none"
     id="path3028"
     d="m 440.83691,145.41018 c -0.1128,0.88753 -0.44802,3.22237 -3.48949,3.52567 l -26.71233,0 c -3.04147,-0.3033 -3.59697,-2.63814 -3.71084,-3.52567 l 0,-41.23751 c 0.1128,-0.88967 0.53422,-2.78075 3.57569,-3.08404 l 26.85919,0 c 3.04253,0.30329 3.36498,2.19437 3.47778,3.08404 l 0,41.23751 z m 9.24891,-59.858778 -52.41048,0 c -7.87503,0.635321 -14.52731,4.629242 -15.41485,13.564209 l 0,51.054699 c 0.88754,8.93497 7.53982,13.66851 15.41485,14.30383 l 52.41048,0 c 7.87503,-0.63532 14.52624,-5.36886 15.41485,-14.30383 l 0,-51.054699 c -0.88861,-8.934967 -7.53982,-12.928888 -15.41485,-13.564209 m -212.10978,15.537228 -23.43142,0 0,-15.537228 71.52659,0 0,15.537228 -23.43141,0 0,63.38551 -24.66376,0 0,-63.38551 z m -30.8297,0 0,-15.537228 -64.12724,0 0,78.922738 64.97966,-0.017 0.0234,-15.5202 -40.27655,0 0.004,-16.90365 39.39645,0 0,-15.49892 -39.39645,0 0,-15.44572 39.39645,0 z m 143.05106,12.23291 c 0,1.70803 -0.42462,3.20642 -3.49056,3.20642 l -28.57254,0 0,-15.49148 28.60979,0 c 3.47992,0 3.45331,2.27738 3.45331,3.69915 l 0,8.58591 z m 6.83213,20.4719 c 7.69412,-0.61617 15.36483,-5.85307 15.36483,-14.45388 l 0,-19.484332 C 371.5015,90.961764 364.829,86.159054 356.91885,85.52586 l -63.44936,0 0.002,78.94828 24.66269,0 0,-30.6807 9.81613,0 16.03101,30.6807 28.36395,0 -19.09057,-30.6807 3.7747,0 z m -265.063749,30.6807 16.524479,-49.57333 0,49.57333 24.66397,0 0,-78.922738 -33.295533,0 -16.03187,39.462438 -16.031972,-39.462438 -33.295524,0 0,78.922738 24.663959,0 0,-49.57333 16.646758,49.57333 16.155733,0" />
</svg>
