<svg width="369" height="239" viewBox="0 0 369 239" fill="none" xmlns="http://www.w3.org/2000/svg">
<path d="M232.888 128.997L222.665 102.455H227.009L237.494 128.997H232.888ZM211.955 128.997L222.403 102.455H226.784L216.561 128.997H211.955ZM216.861 122.475V118.57H232.551V122.475H216.861ZM240.302 136.58V110.038H244.234L244.496 113.527V136.58H240.302ZM250.413 129.452C248.84 129.452 247.486 129.041 246.35 128.219C245.214 127.398 244.346 126.241 243.747 124.75C243.148 123.259 242.848 121.514 242.848 119.517C242.848 117.495 243.148 115.745 243.747 114.266C244.346 112.787 245.214 111.637 246.35 110.816C247.486 109.994 248.84 109.583 250.413 109.583C252.11 109.583 253.589 109.994 254.85 110.816C256.111 111.637 257.097 112.787 257.808 114.266C258.52 115.745 258.876 117.495 258.876 119.517C258.876 121.514 258.52 123.259 257.808 124.75C257.097 126.241 256.111 127.398 254.85 128.219C253.589 129.041 252.11 129.452 250.413 129.452ZM249.364 125.584C250.363 125.584 251.249 125.325 252.023 124.807C252.797 124.289 253.415 123.575 253.876 122.665C254.338 121.755 254.569 120.706 254.569 119.517C254.569 118.329 254.351 117.28 253.914 116.37C253.477 115.46 252.872 114.753 252.098 114.247C251.324 113.742 250.425 113.489 249.402 113.489C248.453 113.489 247.604 113.742 246.855 114.247C246.106 114.753 245.526 115.46 245.114 116.37C244.702 117.28 244.496 118.329 244.496 119.517C244.496 120.706 244.702 121.755 245.114 122.665C245.526 123.575 246.1 124.289 246.836 124.807C247.573 125.325 248.415 125.584 249.364 125.584ZM262.658 136.58V110.038H266.59L266.852 113.527V136.58H262.658ZM272.768 129.452C271.195 129.452 269.841 129.041 268.705 128.219C267.569 127.398 266.702 126.241 266.103 124.75C265.504 123.259 265.204 121.514 265.204 119.517C265.204 117.495 265.504 115.745 266.103 114.266C266.702 112.787 267.569 111.637 268.705 110.816C269.841 109.994 271.195 109.583 272.768 109.583C274.466 109.583 275.945 109.994 277.206 110.816C278.466 111.637 279.452 112.787 280.164 114.266C280.875 115.745 281.231 117.495 281.231 119.517C281.231 121.514 280.875 123.259 280.164 124.75C279.452 126.241 278.466 127.398 277.206 128.219C275.945 129.041 274.466 129.452 272.768 129.452ZM271.72 125.584C272.718 125.584 273.605 125.325 274.378 124.807C275.152 124.289 275.77 123.575 276.232 122.665C276.694 121.755 276.925 120.706 276.925 119.517C276.925 118.329 276.706 117.28 276.269 116.37C275.833 115.46 275.227 114.753 274.453 114.247C273.679 113.742 272.781 113.489 271.757 113.489C270.809 113.489 269.96 113.742 269.211 114.247C268.462 114.753 267.881 115.46 267.47 116.37C267.058 117.28 266.852 118.329 266.852 119.517C266.852 120.706 267.058 121.755 267.47 122.665C267.881 123.575 268.456 124.289 269.192 124.807C269.929 125.325 270.771 125.584 271.72 125.584ZM291.641 129.452C290.393 129.452 289.245 129.262 288.196 128.883C287.148 128.504 286.249 127.967 285.5 127.271C284.751 126.576 284.177 125.761 283.777 124.826L287.41 123.195C287.784 123.903 288.34 124.497 289.076 124.978C289.813 125.458 290.63 125.698 291.529 125.698C292.503 125.698 293.283 125.527 293.869 125.186C294.456 124.845 294.749 124.371 294.749 123.764C294.749 123.183 294.525 122.734 294.075 122.418C293.626 122.102 292.989 121.843 292.166 121.641L290.406 121.148C288.633 120.693 287.248 119.966 286.249 118.968C285.25 117.969 284.751 116.825 284.751 115.536C284.751 113.64 285.356 112.174 286.567 111.138C287.778 110.102 289.519 109.583 291.791 109.583C292.939 109.583 293.994 109.754 294.955 110.095C295.916 110.436 296.746 110.917 297.445 111.536C298.144 112.155 298.631 112.882 298.906 113.716L295.423 115.309C295.174 114.677 294.699 114.19 294 113.849C293.301 113.508 292.528 113.337 291.679 113.337C290.83 113.337 290.168 113.52 289.694 113.887C289.22 114.253 288.983 114.765 288.983 115.423C288.983 115.802 289.195 116.149 289.619 116.465C290.044 116.781 290.655 117.04 291.454 117.243L293.663 117.773C294.887 118.077 295.885 118.551 296.659 119.195C297.433 119.84 298.007 120.56 298.382 121.356C298.756 122.153 298.943 122.955 298.943 123.764C298.943 124.902 298.625 125.9 297.988 126.76C297.352 127.619 296.484 128.283 295.386 128.75C294.287 129.218 293.039 129.452 291.641 129.452Z" fill="#FF5D00"/>
<path d="M78.051 128.997V106.474H70V102.455H90.4458V106.474H82.3948V128.997H78.051Z" fill="#FF5D00"/>
<path d="M88.2288 119.555V115.877H99.4627V119.555H88.2288ZM109.882 129.452C108.509 129.452 107.255 129.287 106.119 128.959C104.983 128.63 103.985 128.175 103.123 127.594C102.262 127.012 101.551 126.361 100.989 125.641C100.427 124.921 100.034 124.169 99.8094 123.385L104.078 122.058C104.403 122.993 105.039 123.815 105.988 124.523C106.937 125.23 108.11 125.597 109.508 125.622C111.131 125.622 112.416 125.281 113.365 124.598C114.314 123.916 114.788 123.018 114.788 121.906C114.788 120.895 114.389 120.067 113.59 119.423C112.791 118.778 111.717 118.279 110.369 117.925L107.149 117.091C105.926 116.762 104.821 116.282 103.835 115.65C102.849 115.018 102.075 114.222 101.513 113.261C100.951 112.301 100.671 111.163 100.671 109.849C100.671 107.372 101.469 105.444 103.067 104.066C104.665 102.689 106.949 102 109.92 102C111.593 102 113.059 102.259 114.32 102.777C115.581 103.295 116.623 104.003 117.447 104.901C118.271 105.798 118.882 106.815 119.282 107.953L115.088 109.318C114.713 108.307 114.064 107.473 113.14 106.815C112.217 106.158 111.068 105.83 109.695 105.83C108.272 105.83 107.155 106.171 106.344 106.853C105.532 107.536 105.127 108.484 105.127 109.697C105.127 110.683 105.445 111.448 106.082 111.991C106.718 112.535 107.586 112.945 108.684 113.223L111.905 114.02C114.251 114.601 116.074 115.599 117.372 117.015C118.67 118.431 119.319 119.998 119.319 121.717C119.319 123.233 118.957 124.573 118.233 125.736C117.509 126.899 116.442 127.809 115.031 128.466C113.621 129.123 111.905 129.452 109.882 129.452ZM135.758 129.452C133.162 129.452 130.865 128.87 128.868 127.707C126.871 126.545 125.304 124.927 124.168 122.854C123.032 120.781 122.465 118.405 122.465 115.726C122.465 113.046 123.032 110.677 124.168 108.616C125.304 106.556 126.858 104.939 128.83 103.763C130.803 102.588 133.074 102 135.646 102C138.242 102 140.532 102.588 142.517 103.763C144.502 104.939 146.05 106.556 147.161 108.616C148.271 110.677 148.827 113.046 148.827 115.726C148.827 118.405 148.271 120.781 147.161 122.854C146.05 124.927 144.514 126.545 142.555 127.707C140.595 128.87 138.329 129.452 135.758 129.452ZM135.758 125.432C137.456 125.432 138.953 125.015 140.252 124.181C141.55 123.347 142.567 122.203 143.304 120.75C144.04 119.296 144.408 117.622 144.408 115.726C144.408 113.855 144.034 112.187 143.285 110.721C142.536 109.255 141.506 108.111 140.195 107.289C138.885 106.468 137.368 106.057 135.646 106.057C133.948 106.057 132.444 106.468 131.133 107.289C129.823 108.111 128.787 109.248 128.025 110.702C127.264 112.155 126.883 113.83 126.883 115.726C126.883 117.622 127.264 119.296 128.025 120.75C128.787 122.203 129.835 123.347 131.171 124.181C132.506 125.015 134.036 125.432 135.758 125.432ZM153.433 128.997V102.455H169.722V106.474H157.777V113.906H168V117.925H157.777V128.997H153.433ZM179.458 128.997V106.474H171.407V102.455H191.853V106.474H183.802V128.997H179.458Z" fill="#3B3735"/>
<path d="M202.016 102.018C202.149 102.018 202.256 102.126 202.256 102.261V128.579C202.256 128.713 202.149 128.822 202.016 128.822C201.884 128.822 201.776 128.713 201.776 128.579V102.261C201.776 102.126 201.884 102.018 202.016 102.018Z" fill="#979797"/>
</svg>
